<svg width="364" height="111" viewBox="0 0 364 111" fill="none" xmlns="http://www.w3.org/2000/svg">
<path d="M3.78088 97.84C74.186 21.0092 134.29 11.1849 181.77 5.27487C229.251 -0.635131 365.015 96.4735 358.776 99.7072" stroke="white" stroke-width="10"/>
<path d="M360.598 96.588C357.765 93.3673 356.161 81.8768 355.944 77.5445C355.718 73.0681 355.016 65.8033 353.209 61.6809C351.444 57.6522 352.917 50.2211 352.941 45.8303C352.955 43.086 349.839 31.5394 352.991 36.321" stroke="white" stroke-width="3" stroke-linecap="round"/>
<path d="M362.133 106.106C357.463 105.497 354.377 102.895 348.678 102.865C343.221 102.836 338.678 104.397 332.821 104.367C323.787 104.319 309.858 105.028 301.891 108.959" stroke="white" stroke-width="3" stroke-linecap="round"/>
</svg>
