<svg width="365" height="111" viewBox="0 0 365 111" fill="none" xmlns="http://www.w3.org/2000/svg">
<path d="M4.5 12C74.5 89.2 134.551 99.3403 182 105.5C229.449 111.66 365.722 15.2665 359.5 12" stroke="white" stroke-width="10"/>
<path d="M361.306 15.1287C358.456 18.3344 356.792 29.8164 356.551 34.1475C356.303 38.6226 355.561 45.8836 353.734 49.9965C351.947 54.0158 353.381 61.4546 353.381 65.8455C353.381 68.5897 350.205 80.1198 353.381 75.3549" stroke="white" stroke-width="3" stroke-linecap="round"/>
<path d="M362.891 5.61926C358.218 6.20342 355.118 8.78906 349.419 8.78906C343.962 8.78906 339.427 7.20416 333.57 7.20416C324.536 7.20416 310.61 6.42235 302.665 2.44946" stroke="white" stroke-width="3" stroke-linecap="round"/>
</svg>
